HIERARCHY
ROOT root
{
	OFFSET	0	13.1	24.9
	CHANNELS 6  Xposition Yposition Zposition Xrotation Yrotation Zrotation
	JOINT spine_1
	{
		OFFSET	0	9.99999	0
		CHANNELS 3  Xrotation Yrotation Zrotation
		JOINT spine_2
		{
			OFFSET	0	112	-10
			CHANNELS 3  Xrotation Yrotation Zrotation
			JOINT spine_3
			{
				OFFSET	0	206.5	19.3
				CHANNELS 3  Xrotation Yrotation Zrotation
				JOINT spine_4
				{
					OFFSET	0	110.4	14.6
					CHANNELS 3  Xrotation Yrotation Zrotation
					JOINT neck_1
					{
						OFFSET	0	71.8	-50.3
						CHANNELS 3  Xrotation Yrotation Zrotation
						JOINT neck_2
						{
							OFFSET	0	86.2	-25.8
							CHANNELS 3  Xrotation Yrotation Zrotation
							JOINT head_ee
							{
								OFFSET	0	179.8	-8.7
								CHANNELS 3  Xrotation Yrotation Zrotation
								End Site
								{
									OFFSET	1	0	0
								}
							}
						}
					}
					JOINT left_clavicle
					{
						OFFSET	-43.2	22.4	-70.8
						CHANNELS 3  Xrotation Yrotation Zrotation
						JOINT left_shoulder
						{
							OFFSET	-93.9	-5.79999	48.7
							CHANNELS 3  Xrotation Yrotation Zrotation
							JOINT left_elbow
							{
								OFFSET	-291.4	-30.8	15.2
								CHANNELS 3  Xrotation Yrotation Zrotation
								JOINT left_lowarm_twist
								{
									OFFSET	-110.7	-3.89999	13.6
									CHANNELS 3  Xrotation Yrotation Zrotation
									JOINT left_hand
									{
										OFFSET	-110.7	-3.89999	13.6
										CHANNELS 3  Xrotation Yrotation Zrotation
										JOINT left_ee
										{
											OFFSET	-80.8	-5.10001	12.1
											CHANNELS 3  Xrotation Yrotation Zrotation
											End Site
											{
												OFFSET	1	0	0
											}
										}
									}
								}
							}
						}
					}
					JOINT right_clavicle
					{
						OFFSET	43.2	22.4	-70.8
						CHANNELS 3  Xrotation Yrotation Zrotation
						JOINT right_shoulder
						{
							OFFSET	93.9	-5.79999	48.7
							CHANNELS 3  Xrotation Yrotation Zrotation
							JOINT right_elbow
							{
								OFFSET	291.4	-30.8	15.2
								CHANNELS 3  Xrotation Yrotation Zrotation
								JOINT right_lowarm_twist
								{
									OFFSET	110.7	-3.89999	13.6
									CHANNELS 3  Xrotation Yrotation Zrotation
									JOINT right_hand
									{
										OFFSET	110.7	-3.89999	13.6
										CHANNELS 3  Xrotation Yrotation Zrotation
										JOINT right_ee
										{
											OFFSET	80.8	-5.10001	12.1
											CHANNELS 3  Xrotation Yrotation Zrotation
											End Site
											{
												OFFSET	1	0	0
											}
										}
									}
								}
							}
						}
					}
				}
			}
		}
	}
	JOINT left_hip
	{
		OFFSET	-82.8	-127.5	0.300001
		CHANNELS 3  Xrotation Yrotation Zrotation
		JOINT left_knee
		{
			OFFSET	-28.2	-396.7	2.2
			CHANNELS 3  Xrotation Yrotation Zrotation
			JOINT left_ankle
			{
				OFFSET	-11.7	-411.3	35.4
				CHANNELS 3  Xrotation Yrotation Zrotation
				JOINT left_toes
				{
					OFFSET	0	-60	-88.6
					CHANNELS 3  Xrotation Yrotation Zrotation
					JOINT left_foot_ee
					{
						OFFSET	-22.5	-16.5	-42.2
						CHANNELS 3  Xrotation Yrotation Zrotation
						End Site
						{
							OFFSET	1	0	0
						}
					}
				}
			}
		}
	}
	JOINT right_hip
	{
		OFFSET	82.8	-127.5	0.300001
		CHANNELS 3  Xrotation Yrotation Zrotation
		JOINT right_knee
		{
			OFFSET	28.2	-396.7	2.2
			CHANNELS 3  Xrotation Yrotation Zrotation
			JOINT right_ankle
			{
				OFFSET	11.7	-411.3	35.4
				CHANNELS 3  Xrotation Yrotation Zrotation
				JOINT right_toes
				{
					OFFSET	0	-60	-88.6
					CHANNELS 3  Xrotation Yrotation Zrotation
					JOINT right_foot_ee
					{
						OFFSET	22.5	-16.5	-42.2
						CHANNELS 3  Xrotation Yrotation Zrotation
						End Site
						{
							OFFSET	1	0	0
						}
					}
				}
			}
		}
	}
}
MOTION
Frames: 13
Frame Time: 0.02
1372.05 701.618 -1475.22 -12.2890573947 20.2267055212 3.01675880505 3.7742 0.511027 1.43731 3.77525 0.418541 1.46691 3.78545 0.201249 1.51211 3.78253 0.437508 1.46137 1.84783 5.40089 -2.07954 1.9928 11.2417 -1.84525 -0.0 0.0 -0.0 5.40675 -10.3463 10.0165 15.9328 10.5575 48.3323 4.03104 -63.3806 2.48932 21.7756 0.246578 -2.75401 7.93824 -16.7714 52.1976 -0.0 0.0 -0.0 11.1987 10.2405 -22.478 -29.7612 -12.7611 -63.7044 0.242034 6.83708 -0.0144581 21.456 -0.250571 2.71338 1.09618 13.2838 -1.73039 0.0 0.0 0.0 -4.49223 41.7596 7.43635 -20.4076 0.29057 3.1017 28.2985 -29.584 -4.56563 -4.38293 0.0 0.0 -0.0 0.0 -0.0 52.193 42.8318 -16.7545 -3.89693 -0.140718 -0.581389 -0.11512 -20.6534 -0.017243 -3.75094 0.0 0.0 0.0 0.0 0.0 
1319.4664282 702.235 -1535.70661651 -13.9668445231 25.96755605 4.9246984084 3.80611 0.497263 1.24367 3.80688 0.417124 1.27278 3.81576 0.228709 1.31971 3.8136 0.434246 1.26705 1.57735 4.53435 -2.64749 1.70921 10.2019 -2.51695 -0.0 0.0 -0.0 6.01774 -5.63455 11.5067 7.95296 11.5849 49.3734 5.12338 -68.4693 3.48762 21.5408 0.249534 -2.72416 8.38113 -18.0527 55.6309 -0.0 0.0 -0.0 11.6697 9.02589 -23.5279 -27.7391 -14.8553 -62.9625 0.280776 7.91855 -0.0194333 22.9747 -0.229579 2.90623 0.790983 13.1931 0.284013 0.0 0.0 0.0 -2.54678 35.8226 5.27462 -24.3878 0.217807 3.70801 30.9444 -30.0457 -4.92675 -3.09997 0.0 0.0 -0.0 0.0 -0.0 49.8273 42.8351 -15.6109 -6.15881 -0.204139 -0.922698 2.69202 -20.698 0.400636 -2.11717 0.0 0.0 0.0 0.0 0.0 
1300.30898462 706.713 -1551.64718048 -14.2262277715 26.2667911066 5.13583048374 3.83751 0.400947 1.11645 3.83814 0.329096 1.13969 3.84436 0.161413 1.17522 3.8426 0.344979 1.13499 1.34268 4.35 -2.5659 1.46243 9.81539 -2.4223 -0.0 0.0 -0.0 6.16661 -3.72039 11.8702 4.80803 12.4413 50.8513 5.39878 -69.4711 3.74469 22.0515 0.242949 -2.78906 8.72402 -19.5814 57.7478 -0.0 0.0 -0.0 11.7777 9.52072 -23.7732 -27.2851 -14.4896 -62.7155 0.289105 8.15033 -0.0205974 23.5222 -0.220758 2.97561 0.74582 12.7138 0.38098 0.0 0.0 0.0 -2.94841 36.8359 5.44058 -24.3754 0.2181 3.70613 30.4699 -31.0099 -4.9289 -3.26298 0.0 0.0 -0.0 0.0 -0.0 49.7451 42.8268 -15.871 -8.46322 -0.254841 -1.27267 3.09125 -20.6436 0.459496 -1.40303 0.0 0.0 0.0 0.0 0.0 
1274.35586517 716.247 -1572.71180714 -12.3440245138 26.7487838614 3.60218854556 3.41445 0.610146 1.30583 3.41525 0.525824 1.342 3.42728 0.316766 1.40609 3.42492 0.534837 1.33844 -0.374264 3.99376 -3.26729 -0.258195 9.78981 -3.06695 -0.0 0.0 -0.0 6.63559 -1.93036 12.8521 2.95093 13.323 52.1684 4.15532 -64.07 2.60076 17.7688 0.280214 -2.24343 8.73573 -18.7645 58.8649 -0.0 0.0 -0.0 12.0422 10.2567 -24.3719 -22.3124 -14.8132 -61.8298 0.347781 9.77518 -0.0297395 24.3804 -0.205599 3.08419 0.498218 11.762 1.64007 0.0 0.0 0.0 0.105658 33.508 4.48624 -30.0104 0.0436669 4.55299 33.147 -29.4158 -5.14997 -2.99749 0.0 0.0 -0.0 0.0 -0.0 46.9131 42.7714 -15.8076 -13.1385 -0.314275 -1.98739 6.51496 -20.2661 0.958144 -0.210195 0.0 0.0 0.0 0.0 0.0 
1253.00350201 720.074 -1588.24098735 -11.2486871015 26.5056796754 2.94902919618 3.1114 0.459771 1.37684 3.11238 0.371236 1.4033 3.12119 0.146923 1.44411 3.11848 0.373126 1.4028 -1.59836 3.71982 -3.67901 -1.48829 9.63254 -3.42591 -0.0 0.0 -0.0 6.71387 0.29139 13.0264 -0.986913 14.3921 53.2788 3.36784 -59.0476 1.90765 15.0276 0.282628 -1.89335 8.91401 -19.0276 60.6919 -0.0 0.0 -0.0 12.0746 11.23 -24.4434 -18.998 -13.6251 -60.9822 0.387691 10.8715 -0.0368918 24.8824 -0.195979 3.14759 0.351738 10.843 2.23482 0.0 0.0 0.0 2.21436 32.1954 3.60763 -35.0415 -0.181807 5.29179 33.1611 -28.8574 -5.117 -3.34766 0.0 0.0 -0.0 0.0 -0.0 45.9784 42.1241 -16.8646 -17.981 -0.314205 -2.73015 9.03067 -20.5117 1.31942 0.981116 -0.0 -0.0 0.0 0.0 0.0 
1255.10151199 720.074 -1590.41055264 -11.1489462085 25.4722952831 2.72142285483 3.1114 0.459771 1.37684 3.11238 0.371236 1.4033 3.12119 0.146923 1.44411 3.11848 0.373126 1.4028 -1.59836 3.71982 -3.67901 -1.48829 9.63254 -3.42591 -0.0 0.0 -0.0 6.71387 0.29139 13.0264 -0.986913 14.3921 53.2788 3.36784 -59.0476 1.90765 15.0276 0.282628 -1.89335 8.91401 -19.0276 60.6919 -0.0 0.0 -0.0 12.0746 11.23 -24.4434 -18.998 -13.6251 -60.9822 0.387691 10.8715 -0.0368918 24.8824 -0.195979 3.14759 0.351738 10.843 2.23482 0.0 0.0 0.0 2.21436 32.1954 3.60763 -35.0415 -0.181807 5.29179 33.1611 -28.8574 -5.117 -3.34766 0.0 0.0 -0.0 0.0 -0.0 45.9784 42.1241 -16.8646 -17.981 -0.314205 -2.73015 9.03067 -20.5117 1.31942 0.981116 -0.0 -0.0 0.0 0.0 0.0 
1214.34838202 721.947 -1617.86084447 -9.52313792982 25.8375964731 1.88524687475 3.00569 0.2488 1.25308 3.00655 0.168565 1.26637 3.01003 -0.0343403 1.27708 3.00779 0.167765 1.26648 -2.82547 3.43639 -4.19557 -2.71692 9.51441 -3.89305 -0.0 0.0 -0.0 6.86851 2.88809 13.3199 -6.00435 15.0756 55.2962 2.69509 -53.1564 1.3485 11.9138 0.265058 -1.49608 9.07844 -19.1416 62.6267 -0.0 0.0 -0.0 12.0316 13.0202 -24.3231 -14.8303 -11.5622 -60.4013 0.437335 12.224 -0.0468307 25.4922 -0.183546 3.22449 0.180207 9.76102 2.93113 0.0 0.0 0.0 5.14258 30.9951 2.55282 -41.2113 -0.54562 6.167 32.9072 -28.2077 -5.0488 -3.80955 0.0 0.0 -0.0 0.0 -0.0 43.5059 41.7231 -17.2708 -24.0592 -0.225408 -3.65816 11.9431 -20.5534 1.72874 2.35147 -0.0 -0.0 0.0 0.0 0.0 
1219.07692904 721.947 -1622.92054294 -9.38076383694 23.9968335749 1.54735802546 3.00569 0.2488 1.25308 3.00655 0.168565 1.26637 3.01003 -0.0343403 1.27708 3.00779 0.167765 1.26648 -2.82547 3.43639 -4.19557 -2.71692 9.51441 -3.89305 -0.0 0.0 -0.0 6.86851 2.88809 13.3199 -6.00435 15.0756 55.2962 2.69509 -53.1564 1.3485 11.9138 0.265058 -1.49608 9.07844 -19.1416 62.6267 -0.0 0.0 -0.0 12.0316 13.0202 -24.3231 -14.8303 -11.5622 -60.4013 0.437335 12.224 -0.0468307 25.4922 -0.183546 3.22449 0.180207 9.76102 2.93113 0.0 0.0 0.0 5.14258 30.9951 2.55282 -41.2113 -0.54562 6.167 32.9072 -28.2077 -5.0488 -3.80955 0.0 0.0 -0.0 0.0 -0.0 43.5059 41.7231 -17.2708 -24.0592 -0.225408 -3.65816 11.9431 -20.5534 1.72874 2.35147 -0.0 -0.0 0.0 0.0 0.0 
1206.42646946 722.475 -1640.62744024 -8.46244867521 22.5246387105 0.60938113807 2.96019 0.312712 1.28188 2.96108 0.230517 1.29917 2.96607 0.0206308 1.3193 2.96371 0.228713 1.29949 -3.15873 3.85854 -3.84057 -3.05883 9.99985 -3.43012 -0.0 0.0 -0.0 6.54086 3.58382 12.6846 -8.95803 15.1823 57.2839 2.58284 -51.981 1.25937 10.9656 0.255421 -1.37534 9.04501 -18.5118 63.061 -0.0 0.0 -0.0 11.9584 14.0669 -24.1315 -14.3606 -8.97089 -61.2996 0.50455 14.0332 -0.0620996 25.7608 -0.177809 3.25832 0.163794 9.3988 2.88741 0.0 0.0 0.0 5.73472 33.2784 1.72544 -43.1845 -0.681696 6.43824 30.8268 -28.6006 -4.8259 -4.01114 0.0 0.0 -0.0 0.0 -0.0 41.9728 42.917 -17.267 -25.8982 -0.179195 -3.93657 12.8248 -20.9137 1.85343 2.69256 -0.0 -0.0 0.0 0.0 0.0 
1193.16349448 727.339 -1664.68673077 -7.89264567127 21.7987993389 0.0787244382185 3.14675 0.453864 1.29697 3.14761 0.370422 1.32321 3.15591 0.159484 1.36479 3.15351 0.373007 1.32249 -3.75132 3.25326 -4.46999 -3.64681 9.37322 -4.11867 -0.0 0.0 -0.0 6.95131 5.89705 13.4267 -12.564 15.1639 58.6089 2.26555 -48.2912 1.0157 9.7525 0.240182 -1.22114 9.15985 -19.1625 63.6749 -0.0 0.0 -0.0 12.561 14.5917 -25.4986 -11.7882 -10.9925 -59.8774 0.454923 12.7 -0.050626 26.2053 -0.167967 3.31425 0.0976958 9.09751 3.20566 0.0 0.0 0.0 10.0401 30.4676 0.599619 -44.9005 -0.807593 6.67025 32.3847 -28.0258 -4.97773 -4.34401 0.0 0.0 -0.0 0.0 -0.0 38.6624 42.2279 -15.7759 -27.5682 -0.129501 -4.18804 13.1413 -21.0156 1.89786 2.99192 -0.0 -0.0 0.0 0.0 0.0 
1179.7158909 730.85 -1688.29211198 -7.44315188517 20.0530393982 -0.358518203292 3.21078 0.437726 1.15643 3.21145 0.363258 1.18193 3.21874 0.175783 1.22393 3.21683 0.366861 1.18082 -4.0123 3.81014 -4.34948 -3.90663 10.291 -3.88233 -0.0 0.0 -0.0 7.03894 7.77681 13.5353 -15.8112 14.5878 60.0444 2.10615 -46.209 0.898626 8.98178 0.228805 -1.12335 9.11068 -18.9539 63.3147 -0.0 0.0 -0.0 12.3745 16.9684 -24.9764 -10.4899 -9.3451 -60.7103 0.468509 13.0664 -0.0536553 26.4621 -0.162085 3.34652 0.125923 8.94312 2.9489 0.0 0.0 0.0 12.7732 33.096 -1.93353 -46.6719 -0.944826 6.90576 31.5842 -28.7084 -4.92328 -4.68228 0.0 0.0 -0.0 0.0 -0.0 36.2145 42.4581 -14.7776 -28.33 -0.104399 -4.30226 14.2296 -20.2637 2.04085 3.16866 -0.0 -0.0 0.0 0.0 0.0 
1191.87225121 730.85 -1698.66599631 -7.30632605839 16.8890402187 -0.790216992314 3.21078 0.437726 1.15643 3.21145 0.363258 1.18193 3.21874 0.175783 1.22393 3.21683 0.366861 1.18082 -4.0123 3.81014 -4.34948 -3.90663 10.291 -3.88233 -0.0 0.0 -0.0 7.03894 7.77681 13.5353 -15.8112 14.5878 60.0444 2.10615 -46.209 0.898626 8.98178 0.228805 -1.12335 9.11068 -18.9539 63.3147 -0.0 0.0 -0.0 12.3745 16.9684 -24.9764 -10.4899 -9.3451 -60.7103 0.468509 13.0664 -0.0536553 26.4621 -0.162085 3.34652 0.125923 8.94312 2.9489 0.0 0.0 0.0 12.7732 33.096 -1.93353 -46.6719 -0.944826 6.90576 31.5842 -28.7084 -4.92328 -4.68228 0.0 0.0 -0.0 0.0 -0.0 36.2145 42.4581 -14.7776 -28.33 -0.104399 -4.30226 14.2296 -20.2637 2.04085 3.16866 -0.0 -0.0 0.0 0.0 0.0 
1160.63201633 735.68 -1730.61536821 -6.41148670284 19.3188573537 -1.35073851839 3.22553 0.640297 1.06848 3.22599 0.571013 1.10705 3.23692 0.393049 1.182 3.23543 0.57478 1.1051 -4.47458 3.68015 -4.2861 -4.37906 9.99525 -3.79184 -0.0 0.0 -0.0 7.16531 9.05163 13.7181 -19.5243 14.3811 62.1303 1.87957 -42.9517 0.739524 8.09469 0.214083 -1.01099 9.12968 -18.9128 63.6276 -0.0 0.0 -0.0 12.5054 17.358 -25.2593 -8.72975 -8.23588 -59.406 0.504402 14.0292 -0.0620637 26.9403 -0.150742 3.40656 0.154853 8.62677 2.61835 0.0 0.0 0.0 16.9317 30.9357 -4.14176 -50.6336 -1.27779 7.41666 31.3149 -28.0728 -4.8544 -4.93783 0.0 0.0 -0.0 0.0 -0.0 31.5773 41.8272 -11.7067 -30.3231 -0.0315572 -4.59944 13.3759 -20.9655 1.92974 3.20546 -0.0 -0.0 0.0 0.0 0.0 
